<svg width="32.000000" height="32.000000" viewBox="0 0 32 32" fill="none" xmlns="http://www.w3.org/2000/svg" xmlns:xlink="http://www.w3.org/1999/xlink">
	<desc>
			Created with Pixso.
	</desc>
	<defs>
		<clipPath id="clip204_2296">
			<rect id="Telegram, Negative" rx="-0.500000" width="31.000000" height="31.000000" transform="translate(0.500000 0.500000)" fill="white" fill-opacity="0"/>
		</clipPath>
	</defs>
	<rect id="Telegram, Negative" rx="-0.500000" width="31.000000" height="31.000000" transform="translate(0.500000 0.500000)" fill="#FFFFFF" fill-opacity="0"/>
	<g clip-path="url(#clip204_2296)">
		<path id="Vector" d="M32 16C32 24.83 24.83 32 16 32C7.16 32 0 24.83 0 16C0 7.16 7.16 0 16 0C24.83 0 32 7.16 32 16ZM16.57 11.81C15.01 12.45 11.9 13.79 7.24 15.83C6.48 16.13 6.08 16.42 6.05 16.71C5.99 17.2 6.6 17.39 7.43 17.65C7.54 17.68 7.66 17.72 7.78 17.76C8.59 18.03 9.69 18.34 10.26 18.35C10.78 18.36 11.36 18.15 12 17.71C16.36 14.77 18.61 13.28 18.75 13.25C18.85 13.23 18.99 13.2 19.08 13.28C19.17 13.36 19.16 13.52 19.15 13.56C19.09 13.82 16.7 16.05 15.46 17.2C15.07 17.56 14.8 17.81 14.74 17.87C14.62 18 14.49 18.12 14.37 18.24C13.61 18.97 13.04 19.52 14.4 20.42C15.05 20.85 15.58 21.2 16.1 21.56C16.67 21.95 17.24 22.33 17.97 22.82C18.16 22.94 18.34 23.07 18.51 23.19C19.17 23.66 19.77 24.09 20.51 24.02C20.93 23.98 21.37 23.58 21.6 22.38C22.13 19.55 23.17 13.41 23.41 10.88C23.43 10.66 23.41 10.37 23.38 10.25C23.36 10.12 23.32 9.94 23.16 9.81C22.97 9.66 22.67 9.62 22.54 9.63C21.93 9.64 21.01 9.96 16.57 11.81Z" fill="#001031" fill-opacity="1.000000" fill-rule="evenodd"/>
	</g>
</svg>
