<svg width="31.068848" height="32.037109" viewBox="0 0 31.0688 32.0371" fill="none" xmlns="http://www.w3.org/2000/svg" xmlns:xlink="http://www.w3.org/1999/xlink">
	<desc>
			Created with Pixso.
	</desc>
	<defs/>
	<path id="Ellipse 12" d="M7.79 26.18C8.76 28.12 8.76 29.09 6.34 30.06C3.93 30.06 1.97 30.74 1.97 28.6C1.97 26.46 2.47 23.75 4.88 23.75C7.29 23.75 7.79 24.03 7.79 26.18Z" fill="#001031" fill-opacity="1.000000" fill-rule="nonzero"/>
	<path id="Subtract" d="M15.6807 0C7.18164 0 0.291992 6.89453 0.291992 15.3984C0.291992 18.1934 1.03613 20.8145 2.33691 23.0742L0 32.0371L1.47217 31.6699L9.73096 29.6035C11.5615 30.3711 13.5713 30.7969 15.6807 30.7969C24.1792 30.7969 31.0688 23.9023 31.0688 15.3984C31.0688 6.89453 24.1792 0 15.6807 0ZM9.81396 27.668C11.5898 28.5195 13.5796 28.9961 15.6807 28.9961C23.1851 28.9961 29.269 22.9082 29.269 15.3984C29.269 7.88867 23.1851 1.80078 15.6807 1.80078C8.17578 1.80078 2.0918 7.88867 2.0918 15.3984C2.0918 18.1484 2.9082 20.709 4.31152 22.8477L4.11084 23.543L3.65186 25.0137L3.68164 25.0508L2.50732 29.5547L7.03955 28.4219L7.05957 28.4355L9.81396 27.668Z" clip-rule="evenodd" fill="#001031" fill-opacity="1.000000" fill-rule="evenodd"/>
	<path id="Subtract" d="M15.5527 0.96875C7.51904 0.96875 1.00684 7.48047 1.00684 15.5137C1.00684 23.5469 7.51904 30.0605 15.5527 30.0605C23.5859 30.0605 30.0981 23.5469 30.0981 15.5137C30.0981 7.48047 23.5859 0.96875 15.5527 0.96875ZM14.7769 16.4375C13.7656 15.4258 12.9673 14.2812 12.3818 13.0605C12.3311 12.9551 12.3062 12.9023 12.2866 12.8359C12.2178 12.5996 12.2676 12.3105 12.4106 12.1113C12.4507 12.0547 12.499 12.0059 12.5952 11.9102C12.8892 11.6152 13.0361 11.4688 13.1323 11.3203C13.4951 10.7617 13.4951 10.043 13.1323 9.48438C13.0361 9.33594 12.8892 9.18945 12.5952 8.89453L12.4312 8.73047C11.9839 8.2832 11.7603 8.05859 11.52 7.9375C11.0425 7.69531 10.478 7.69531 10.0005 7.9375C9.76025 8.05859 9.53662 8.2832 9.08936 8.73047L8.95703 8.86328C8.51123 9.30859 8.28857 9.5332 8.11816 9.83594C7.9292 10.1719 7.79346 10.6953 7.79443 11.0801C7.7959 11.4277 7.86328 11.666 7.99805 12.1406C8.72266 14.6953 10.0894 17.1055 12.0991 19.1172C14.1089 21.127 16.5176 22.4961 19.0703 23.2207C19.5454 23.3555 19.7832 23.4238 20.1304 23.4238C20.5161 23.4258 21.0381 23.2891 21.3745 23.0996C21.6777 22.9297 21.9004 22.707 22.3462 22.2617L22.4785 22.1289C22.9258 21.6797 23.1494 21.457 23.271 21.2168C23.5127 20.7383 23.5127 20.1738 23.271 19.6973C23.1494 19.4551 22.9258 19.2324 22.4785 18.7852L22.3149 18.6211C22.0205 18.3262 21.8735 18.1797 21.7256 18.082C21.1675 17.7207 20.4482 17.7207 19.8906 18.082C19.7427 18.1797 19.5957 18.3262 19.3013 18.6211C19.2051 18.7168 19.1572 18.7656 19.1006 18.8047C18.9009 18.9492 18.6113 18.998 18.3755 18.9297C18.3091 18.9102 18.2563 18.8848 18.1514 18.834C16.9316 18.248 15.7881 17.4492 14.7769 16.4375Z" clip-rule="evenodd" fill="#001031" fill-opacity="1.000000" fill-rule="evenodd"/>
</svg>
