<svg width="26.000000" height="26.900391" viewBox="0 0 26 26.9004" fill="none" xmlns="http://www.w3.org/2000/svg" xmlns:xlink="http://www.w3.org/1999/xlink">
	<desc>
			Created with Pixso.
	</desc>
	<defs/>
	<path id="Rectangle 11" d="M12.36 2.17L13.63 2.17C17.7 2.17 19.73 2.17 21.32 2.9C23.07 3.7 24.47 5.1 25.27 6.85C26 8.43 26 10.47 26 14.53C26 18.6 26 20.63 25.27 22.22C24.47 23.97 23.07 25.37 21.32 26.17C19.73 26.9 17.7 26.9 13.63 26.9L12.36 26.9C8.29 26.9 6.26 26.9 4.67 26.17C2.92 25.37 1.52 23.97 0.72 22.22C0 20.63 0 18.6 0 14.53C0 10.47 0 8.43 0.72 6.85C1.52 5.1 2.92 3.7 4.67 2.9C6.26 2.17 8.29 2.17 12.36 2.17ZM12.36 3.77L13.63 3.77Q19.39 3.77 20.65 4.35Q21.74 4.85 22.53 5.64Q23.32 6.43 23.82 7.52Q24.39 8.78 24.39 14.53Q24.39 20.29 23.82 21.55Q23.32 22.64 22.53 23.43Q21.74 24.22 20.65 24.72Q19.39 25.29 13.63 25.29L12.36 25.29Q6.6 25.29 5.34 24.72Q4.25 24.22 3.46 23.43Q2.67 22.64 2.17 21.55Q1.6 20.29 1.6 14.53Q1.6 8.78 2.17 7.52Q2.67 6.43 3.46 5.64Q4.25 4.85 5.34 4.35Q6.6 3.77 12.36 3.77ZM21.06 6.97L4.7 6.97L4.7 10.17L21.06 10.17L21.06 6.97Z" fill="#001031" fill-opacity="1.000000" fill-rule="evenodd"/>
	<path id="Vector 1" d="M8.06 0.9L8.06 3.88M18.15 0.9L18.15 3.88" stroke="#001031" stroke-opacity="1.000000" stroke-width="1.800000"/>
</svg>
