<svg width="23" height="26" viewBox="0 0 23 26" fill="none" xmlns="http://www.w3.org/2000/svg">
<path fill-rule="evenodd" clip-rule="evenodd" d="M8.28963 17.4951C3.50658 18.0074 0 19.6813 0 21.6672C0 24.0604 5.09276 26.0005 11.375 26.0005C17.6572 26.0005 22.75 24.0604 22.75 21.6672C22.75 19.6925 19.2828 18.0263 14.541 17.5039L14.2407 19.0808C16.0461 19.2706 17.6267 19.6327 18.8487 20.0982C19.7714 20.4497 20.4078 20.8292 20.7853 21.1693C20.9692 21.3349 21.0639 21.4662 21.1094 21.551C21.1501 21.6268 21.15 21.661 21.15 21.6668V21.6672V21.6675C21.15 21.6733 21.1501 21.7075 21.1094 21.7833C21.0639 21.8681 20.9692 21.9994 20.7853 22.165C20.4078 22.5051 19.7714 22.8846 18.8487 23.2361C17.0145 23.9349 14.3726 24.4005 11.375 24.4005C8.3774 24.4005 5.73547 23.9349 3.90125 23.2361C2.97859 22.8846 2.34224 22.5051 1.96469 22.165C1.78082 21.9994 1.68615 21.8681 1.64062 21.7833C1.59987 21.7075 1.59998 21.6733 1.6 21.6675L1.6 21.6672L1.6 21.6668C1.59998 21.661 1.59987 21.6268 1.64062 21.551C1.68615 21.4662 1.78082 21.3349 1.96469 21.1693C2.34224 20.8292 2.97859 20.4497 3.90125 20.0982C5.20622 19.6011 6.92003 19.2219 8.87989 19.0445L8.28963 17.4951Z" fill="#001031"/>
<path d="M18.0125 7.8C18.0125 8.74103 17.6931 10.1523 17.1383 11.7995C16.5907 13.4255 15.8392 15.2087 15.0311 16.8645C14.2217 18.5229 13.3665 20.0309 12.6176 21.113C12.2411 21.6569 11.9082 22.0688 11.6365 22.3356C11.55 22.4205 11.4772 22.4832 11.4185 22.5281C11.3682 22.4837 11.3075 22.4258 11.2364 22.3518C10.9707 22.0755 10.6328 21.6537 10.243 21.105C9.46748 20.0132 8.54139 18.4971 7.65016 16.837C6.75938 15.1778 5.91379 13.3941 5.29324 11.7694C4.66283 10.1189 4.3 8.72147 4.3 7.8C4.3 3.94121 7.46035 0.8 11.375 0.8C15.2304 0.8 18.0125 3.88012 18.0125 7.8ZM11.2862 22.6124C11.2862 22.6124 11.2872 22.612 11.289 22.6113C11.2871 22.6122 11.2862 22.6125 11.2862 22.6124ZM11.554 22.633C11.5614 22.6364 11.5652 22.6387 11.5653 22.639C11.5653 22.6393 11.5617 22.6376 11.554 22.633Z" stroke="#001031" stroke-width="1.6"/>
<path d="M14.6625 8.23301C14.6625 10.0221 13.1965 11.483 11.375 11.483C9.55349 11.483 8.0875 10.0221 8.0875 8.23301C8.0875 6.44393 9.55349 4.98301 11.375 4.98301C13.1965 4.98301 14.6625 6.44393 14.6625 8.23301Z" stroke="#001031" stroke-width="1.3"/>
</svg>
