<svg width="26" height="25" viewBox="0 0 26 25" fill="none" xmlns="http://www.w3.org/2000/svg">
<path d="M16.25 10.1564C16.25 10.1564 16.4452 7.31228 12.5937 7.3125C10.1562 7.31264 9.10625 8.12049 8.96217 9.56131C8.5559 13.6238 16.2747 11.9988 16.2747 15.6552C16.2747 17.2886 14.2272 17.8752 12.5938 17.8751C9.34374 17.875 8.9375 15.0314 8.9375 15.0314" stroke="#001031" stroke-width="1.8" stroke-linecap="round"/>
<path d="M13 5.6875V19.5" stroke="#001031" stroke-width="1.8" stroke-linecap="round"/>
<path d="M0.8 12.3607C0.8 10.3155 0.800514 8.82525 0.888047 7.64739C0.974976 6.47763 1.14449 5.67992 1.44977 5.01093C2.16943 3.43389 3.43389 2.16943 5.01093 1.44977C5.67992 1.14449 6.47763 0.974976 7.64739 0.888047C8.82525 0.800514 10.3155 0.8 12.3607 0.8H13.6393C15.6845 0.8 17.1748 0.800514 18.3526 0.888047C19.5224 0.974976 20.3201 1.14449 20.9891 1.44977C22.5661 2.16943 23.8306 3.43389 24.5502 5.01093C24.8555 5.67992 25.025 6.47763 25.112 7.64739C25.1995 8.82525 25.2 10.3155 25.2 12.3607C25.2 14.4059 25.1995 15.8961 25.112 17.0739C25.025 18.2437 24.8555 19.0414 24.5502 19.7104C23.8306 21.2874 22.5661 22.5519 20.9891 23.2715C20.3201 23.5768 19.5224 23.7463 18.3526 23.8333C17.1748 23.9208 15.6845 23.9213 13.6393 23.9213H12.3607C10.3155 23.9213 8.82525 23.9208 7.64739 23.8333C6.47763 23.7463 5.67992 23.5768 5.01093 23.2715C3.43389 22.5519 2.16943 21.2874 1.44977 19.7104C1.14449 19.0414 0.974976 18.2437 0.888047 17.0739C0.800514 15.8961 0.8 14.4059 0.8 12.3607Z" stroke="#001031" stroke-width="1.6" stroke-linecap="round"/>
</svg>
