<svg width="32.000000" height="32.000000" viewBox="0 0 32 32" fill="none" xmlns="http://www.w3.org/2000/svg" xmlns:xlink="http://www.w3.org/1999/xlink">
	<desc>
			Created with Pixso.
	</desc>
	<defs>
		<clipPath id="clip3_5601">
			<rect id="VK, Negative" rx="-0.500000" width="31.000000" height="31.000000" transform="translate(0.500000 0.500000)" fill="white" fill-opacity="0"/>
		</clipPath>
	</defs>
	<rect id="VK, Negative" rx="-0.500000" width="31.000000" height="31.000000" transform="translate(0.500000 0.500000)" fill="#FFFFFF" fill-opacity="0"/>
	<g clip-path="url(#clip3_5601)">
		<path id="Vector" d="M2.24 2.24C0 4.49 0 8.11 0 15.36L0 16.63C0 23.88 0 27.5 2.24 29.75C4.49 32 8.11 32 15.35 32L16.64 32C23.88 32 27.5 32 29.75 29.75C32 27.5 32 23.88 32 16.63L32 15.36C32 8.11 32 4.49 29.75 2.24C27.5 0 23.88 0 16.64 0L15.35 0C8.11 0 4.49 0 2.24 2.24ZM5.39 9.73C5.57 18.05 9.73 23.05 17.02 23.05L17.43 23.05L17.43 18.29C20.12 18.56 22.14 20.52 22.96 23.05L26.74 23.05C25.7 19.26 22.97 17.17 21.26 16.37C22.97 15.38 25.37 12.98 25.94 9.73L22.5 9.73C21.75 12.37 19.54 14.77 17.43 15L17.43 9.73L14 9.73L14 18.95C11.86 18.42 9.17 15.83 9.05 9.73L5.39 9.73Z" fill="#FFFFFF" fill-opacity="1.000000" fill-rule="evenodd"/>
	</g>
</svg>
