<svg width="32.000000" height="32.000000" viewBox="0 0 32 32" fill="none" xmlns="http://www.w3.org/2000/svg" xmlns:xlink="http://www.w3.org/1999/xlink">
	<desc>
			Created with Pixso.
	</desc>
	<defs/>
	<rect id="Rectangle 5" rx="8.000000" width="32.000000" height="32.000000" fill="#FFFFFF" fill-opacity="1.000000"/>
	<mask id="mask_6_5605" fill="white">
		<path id="Subtract" d="M28.1392 10.0801C27.8999 8.84863 26.7607 7.95117 25.439 7.67188C23.4609 7.28027 19.7998 7 15.8389 7C11.8804 7 8.16113 7.28027 6.18066 7.67188C4.86084 7.95117 3.71973 8.79199 3.48047 10.0801C3.23926 11.4805 3 13.4404 3 15.96C3 18.4805 3.23926 20.4404 3.53906 21.8398C3.78027 23.0713 4.91943 23.9688 6.23926 24.248C8.33887 24.6396 11.939 24.9199 15.8999 24.9199C19.8608 24.9199 23.4609 24.6396 25.561 24.248C26.8804 23.9688 28.0195 23.1289 28.2607 21.8398C28.5 20.4404 28.7998 18.4229 28.8608 15.96C28.7393 13.4404 28.439 11.4805 28.1392 10.0801ZM12.5 12L12.5 20L20 16L18.5195 15.21L12.6001 12.04L12.6001 12.0527L12.5 12Z" clip-rule="evenodd" fill="" fill-opacity="1.000000" fill-rule="evenodd"/>
	</mask>
	<path id="Subtract" d="M28.1392 10.0801C27.8999 8.84863 26.7607 7.95117 25.439 7.67188C23.4609 7.28027 19.7998 7 15.8389 7C11.8804 7 8.16113 7.28027 6.18066 7.67188C4.86084 7.95117 3.71973 8.79199 3.48047 10.0801C3.23926 11.4805 3 13.4404 3 15.96C3 18.4805 3.23926 20.4404 3.53906 21.8398C3.78027 23.0713 4.91943 23.9688 6.23926 24.248C8.33887 24.6396 11.939 24.9199 15.8999 24.9199C19.8608 24.9199 23.4609 24.6396 25.561 24.248C26.8804 23.9688 28.0195 23.1289 28.2607 21.8398C28.5 20.4404 28.7998 18.4229 28.8608 15.96C28.7393 13.4404 28.439 11.4805 28.1392 10.0801ZM12.5 12L12.5 20L20 16L18.5195 15.21L12.6001 12.04L12.6001 12.0527L12.5 12Z" clip-rule="evenodd" fill="#001031" fill-opacity="1.000000" fill-rule="evenodd" mask="url(#mask_6_5605)"/>
	<path id="Subtract" d="M25.439 7.67188C26.7607 7.95117 27.8999 8.84863 28.1392 10.0801C28.439 11.4805 28.7393 13.4404 28.8608 15.96C28.7998 18.4229 28.5 20.4404 28.2607 21.8398C28.0195 23.1289 26.8804 23.9688 25.561 24.248C23.4609 24.6396 19.8608 24.9199 15.8999 24.9199C11.939 24.9199 8.33887 24.6396 6.23926 24.248C4.91943 23.9688 3.78027 23.0713 3.53906 21.8398C3.23926 20.4404 3 18.4805 3 15.96C3 13.4404 3.23926 11.4805 3.48047 10.0801C3.71973 8.79199 4.86084 7.95117 6.18066 7.67188C8.16113 7.28027 11.8804 7 15.8389 7C19.7998 7 23.4609 7.28027 25.439 7.67188ZM6.43473 23.2679C6.18671 23.2142 5.95099 23.134 5.72852 23.0264C5.50684 22.9199 5.30957 22.792 5.13721 22.6436C4.79883 22.3525 4.59229 22.0146 4.51709 21.6309C4.36084 20.9023 4.23926 20.0996 4.15234 19.2217C4.05078 18.1992 4 17.1123 4 15.96C4 13.9551 4.15479 12.0557 4.46387 10.2627C4.53516 9.87695 4.73779 9.54297 5.0708 9.26074C5.42041 8.96582 5.85498 8.7627 6.37451 8.65234C7.34424 8.46094 8.66602 8.30566 10.3389 8.18652C12.0864 8.0625 13.9194 8 15.8389 8C17.7554 8 19.5796 8.0625 21.311 8.18652C22.9624 8.30469 24.269 8.45898 25.2319 8.64941C25.4849 8.70312 25.7246 8.78516 25.9512 8.89355C26.1729 9.00098 26.3701 9.12793 26.5425 9.27637C26.8804 9.56738 27.0854 9.89844 27.1572 10.2705L27.1611 10.2891C27.5242 11.9839 27.7574 13.8774 27.8604 15.9707C27.8333 17.0296 27.7579 18.1018 27.6343 19.1855C27.5464 19.9551 27.4277 20.7793 27.2778 21.6562C27.2056 22.043 27.0024 22.377 26.6694 22.6592C26.3236 22.9513 25.8897 23.1543 25.3686 23.2673C24.3255 23.4608 22.9881 23.6165 21.3569 23.7334C19.625 23.8574 17.8062 23.9199 15.8999 23.9199C13.9937 23.9199 12.1748 23.8574 10.4434 23.7334C8.81358 23.6167 7.47737 23.4612 6.43473 23.2679ZM11.6001 10.3864L11.5 10.333L11.5 21.667L22.125 16L18.9902 14.3281L11.6001 10.3701L11.6001 10.3864ZM12.5 13.1329L12.5 20L13.5 19.4667L18.9377 16.5665L20 16L18.9373 15.4329L18.5195 15.21L13.6001 12.5756L13.5 12.5219L12.6054 12.0429L12.6001 12.04L12.6001 12.0527L12.5948 12.0499L12.5 12L12.5 13.1329Z" clip-rule="evenodd" fill="#000000" fill-opacity="1.000000" fill-rule="evenodd"/>
</svg>
