<svg width="48.000000" height="48.000000" viewBox="0 0 48 48" fill="none" xmlns="http://www.w3.org/2000/svg" xmlns:xlink="http://www.w3.org/1999/xlink">
	<desc>
			Created with Pixso.
	</desc>
	<defs>
		<clipPath id="clip204_2521">
			<rect id="file-check-48" rx="-0.500000" width="47.000000" height="47.000000" transform="translate(0.500000 0.500000)" fill="white" fill-opacity="0"/>
		</clipPath>
	</defs>
	<rect id="file-check-48" rx="-0.500000" width="47.000000" height="47.000000" transform="translate(0.500000 0.500000)" fill="#FFFFFF" fill-opacity="0"/>
	<g clip-path="url(#clip204_2521)">
		<path id="Icon" d="M22.94 46L16.16 46C12.6 46 10.82 46 9.46 45.31C8.27 44.7 7.3 43.74 6.69 42.56C6 41.21 6 39.44 6 35.91L6 14.08C6 10.55 6 8.78 6.69 7.43C7.3 6.25 8.27 5.29 9.46 4.68C10.82 4 12.6 4 16.16 4L29.71 4C33.27 4 35.05 4 36.41 4.68C37.6 5.29 38.58 6.25 39.18 7.43C39.88 8.78 39.88 10.55 39.88 14.08L39.88 26.04M27.17 22.9L14.47 22.9M18.7 31.29L14.47 31.29M31.41 14.5L14.47 14.5M28.23 39.7L32.47 43.9L42 34.45" stroke="#000000" stroke-opacity="1.000000" stroke-width="1.600000" stroke-linejoin="round"/>
	</g>
</svg>
