<svg width="48.000000" height="48.000000" viewBox="0 0 48 48" fill="none" xmlns="http://www.w3.org/2000/svg" xmlns:xlink="http://www.w3.org/1999/xlink">
	<desc>
			Created with Pixso.
	</desc>
	<defs>
		<clipPath id="clip204_2512">
			<rect id="phone-48" rx="-0.500000" width="47.000000" height="47.000000" transform="translate(0.500000 0.500000)" fill="white" fill-opacity="0"/>
		</clipPath>
	</defs>
	<rect id="phone-48" rx="-0.500000" width="47.000000" height="47.000000" transform="translate(0.500000 0.500000)" fill="#FFFFFF" fill-opacity="0"/>
	<g clip-path="url(#clip204_2512)">
		<path id="Icon" d="M30.61 1.71L30.61 4.83C30.61 6.08 30.61 6.7 30.37 7.18C30.16 7.6 29.82 7.94 29.41 8.15C28.93 8.4 28.32 8.4 27.08 8.4L20.91 8.4C19.68 8.4 19.06 8.4 18.59 8.15C18.17 7.94 17.83 7.6 17.62 7.18C17.38 6.7 17.38 6.08 17.38 4.83L17.38 1.71M32.37 1.71C34.84 1.71 36.08 1.71 37.02 2.2C37.85 2.62 38.52 3.3 38.94 4.14C39.42 5.1 39.42 6.34 39.42 8.84L39.42 39.15C39.42 41.65 39.42 42.89 38.94 43.85C38.52 44.69 37.85 45.37 37.02 45.8C36.08 46.28 34.84 46.28 32.37 46.28L15.62 46.28C13.15 46.28 11.92 46.28 10.97 45.8C10.15 45.37 9.47 44.69 9.05 43.85C8.57 42.89 8.57 41.65 8.57 39.15L8.57 8.84C8.57 6.34 8.57 5.1 9.05 4.14C9.47 3.3 10.15 2.62 10.97 2.2C11.92 1.71 13.15 1.71 15.62 1.71L32.37 1.71Z" stroke="#000000" stroke-opacity="1.000000" stroke-width="1.600000" stroke-linejoin="round" stroke-linecap="round"/>
	</g>
</svg>
