<svg width="48.000000" height="48.000000" viewBox="0 0 48 48" fill="none" xmlns="http://www.w3.org/2000/svg" xmlns:xlink="http://www.w3.org/1999/xlink">
	<desc>
			Created with Pixso.
	</desc>
	<defs>
		<clipPath id="clip204_2818">
			<rect id="hourglass-48" rx="-0.500000" width="47.000000" height="47.000000" transform="translate(0.500000 0.500000)" fill="white" fill-opacity="0"/>
		</clipPath>
	</defs>
	<rect id="hourglass-48" rx="-0.500000" width="47.000000" height="47.000000" transform="translate(0.500000 0.500000)" fill="#FFFFFF" fill-opacity="0"/>
	<g clip-path="url(#clip204_2818)">
		<path id="Icon" d="M36.34 2C37.62 2 38.26 2 38.75 2.24C39.18 2.45 39.53 2.78 39.75 3.2C40 3.67 40 4.28 40 5.51L40 10.08C40 11.16 40 11.69 39.87 12.2C39.76 12.65 39.57 13.08 39.32 13.47C39.04 13.92 38.64 14.3 37.85 15.06L31.15 21.51C30.25 22.38 29.8 22.81 29.62 23.32C29.48 23.76 29.48 24.23 29.62 24.67C29.8 25.18 30.25 25.61 31.15 26.48L37.85 32.93C38.64 33.69 39.04 34.07 39.32 34.52C39.57 34.91 39.76 35.34 39.87 35.79C40 36.3 40 36.83 40 37.91L40 42.48C40 43.71 40 44.32 39.75 44.79C39.53 45.21 39.18 45.54 38.75 45.75C38.26 46 37.62 46 36.34 46L11.65 46C10.37 46 9.73 46 9.24 45.75C8.81 45.54 8.46 45.21 8.25 44.79C8 44.32 8 43.71 8 42.48L8 37.91C8 36.83 8 36.3 8.12 35.79C8.23 35.34 8.42 34.91 8.67 34.52C8.95 34.07 9.35 33.69 10.14 32.93L16.84 26.48C17.74 25.61 18.19 25.18 18.37 24.67C18.51 24.23 18.51 23.76 18.37 23.32C18.19 22.81 17.74 22.38 16.84 21.51L10.14 15.06C9.35 14.3 8.95 13.92 8.67 13.47C8.42 13.08 8.23 12.65 8.12 12.2C8 11.69 8 11.16 8 10.08L8 5.51C8 4.28 8 3.67 8.25 3.2C8.46 2.78 8.81 2.45 9.24 2.24C9.73 2 10.37 2 11.65 2L36.34 2ZM17.14 38.29L30.85 38.29" stroke="#000000" stroke-opacity="1.000000" stroke-width="1.600000" stroke-linejoin="round" stroke-linecap="round"/>
	</g>
</svg>
