<svg width="48.000000" height="48.000000" viewBox="0 0 48 48" fill="none" xmlns="http://www.w3.org/2000/svg" xmlns:xlink="http://www.w3.org/1999/xlink">
	<desc>
			Created with Pixso.
	</desc>
	<defs>
		<clipPath id="clip204_2815">
			<rect id="grid48" rx="-0.500000" width="47.000000" height="47.000000" transform="translate(0.500000 0.500000)" fill="white" fill-opacity="0"/>
		</clipPath>
	</defs>
	<rect id="grid48" rx="-0.500000" width="47.000000" height="47.000000" transform="translate(0.500000 0.500000)" fill="#FFFFFF" fill-opacity="0"/>
	<g clip-path="url(#clip204_2815)">
		<path id="Icon" d="M13.92 24.42L13.95 24.42M34.92 24.42L34.95 24.42M24.42 24.42L24.45 24.42M24.42 34.92L24.45 34.92M24.42 13.92L24.45 13.92M45.42 34.22C45.42 38.14 45.42 40.1 44.66 41.6C43.99 42.92 42.92 43.99 41.6 44.66C40.1 45.42 38.14 45.42 34.23 45.42L14.62 45.42C10.71 45.42 8.75 45.42 7.25 44.66C5.93 43.99 4.86 42.92 4.19 41.6C3.42 40.1 3.42 38.14 3.42 34.22L3.42 14.62C3.42 10.7 3.42 8.74 4.19 7.25C4.86 5.93 5.93 4.86 7.25 4.19C8.75 3.42 10.71 3.42 14.62 3.42L34.23 3.42C38.14 3.42 40.1 3.42 41.6 4.19C42.92 4.86 43.99 5.93 44.66 7.25C45.42 8.74 45.42 10.7 45.42 14.62L45.42 34.22Z" stroke="#000000" stroke-opacity="1.000000" stroke-width="1.600000" stroke-linejoin="round"/>
	</g>
</svg>
