<svg width="48.000000" height="48.000000" viewBox="0 0 48 48" fill="none" xmlns="http://www.w3.org/2000/svg" xmlns:xlink="http://www.w3.org/1999/xlink">
	<desc>
			Created with Pixso.
	</desc>
	<defs>
		<clipPath id="clip204_2812">
			<rect id="roller-brush-48" rx="-0.500000" width="47.000000" height="47.000000" transform="translate(0.500000 0.500000)" fill="white" fill-opacity="0"/>
		</clipPath>
	</defs>
	<rect id="roller-brush-48" rx="-0.500000" width="47.000000" height="47.000000" transform="translate(0.500000 0.500000)" fill="#FFFFFF" fill-opacity="0"/>
	<g clip-path="url(#clip204_2812)">
		<path id="Icon" d="M31.84 2C32.87 2 33.38 2 33.8 2.08C35.56 2.43 36.93 3.79 37.28 5.54C37.36 5.96 37.36 6.47 37.36 7.5C37.36 8.52 37.36 9.03 37.28 9.45C36.93 11.2 35.56 12.56 33.8 12.91C33.38 13 32.87 13 31.84 13L7.52 13C6.5 13 5.98 13 5.55 12.91C3.8 12.56 2.43 11.2 2.08 9.45C2 9.03 2 8.52 2 7.5C2 6.47 2 5.96 2.08 5.54C2.43 3.79 3.8 2.43 5.55 2.08C5.98 2 6.5 2 7.52 2L31.84 2ZM37.36 7.5C39.42 7.5 40.45 7.5 41.26 7.83C42.35 8.28 43.21 9.13 43.66 10.21C44 11.02 44 12.04 44 14.09L44 14.75C44 17.22 44 18.45 43.51 19.39C43.09 20.22 42.41 20.89 41.58 21.32C40.64 21.79 39.4 21.79 36.92 21.79L28.96 21.79C26.49 21.79 25.25 21.79 24.3 22.27C23.47 22.7 22.8 23.37 22.37 24.2C21.89 25.14 21.89 26.37 21.89 28.83L21.89 30.59M22.77 30.59C24.01 30.59 24.63 30.59 25.1 30.83C25.52 31.05 25.86 31.38 26.07 31.8C26.31 32.27 26.31 32.88 26.31 34.12L26.31 42.48C26.31 43.71 26.31 44.32 26.07 44.79C25.86 45.21 25.52 45.54 25.1 45.75C24.63 46 24.01 46 22.77 46L21.01 46C19.77 46 19.15 46 18.67 45.75C18.26 45.54 17.92 45.21 17.71 44.79C17.47 44.32 17.47 43.71 17.47 42.48L17.47 34.12C17.47 32.88 17.47 32.27 17.71 31.8C17.92 31.38 18.26 31.05 18.67 30.83C19.15 30.59 19.77 30.59 21.01 30.59L22.77 30.59Z" stroke="#000000" stroke-opacity="1.000000" stroke-width="1.600000" stroke-linejoin="round"/>
	</g>
</svg>
