<svg width="48.000000" height="45.639648" viewBox="0 0 48 45.6396" fill="none" xmlns="http://www.w3.org/2000/svg" xmlns:xlink="http://www.w3.org/1999/xlink">
	<desc>
			Created with Pixso.
	</desc>
	<defs/>
	<path id="Vector 3" d="M30 18.75C30 18.75 30.35 13.5 23.25 13.5C18.75 13.5 16.81 14.99 16.54 17.65C15.79 25.15 30.04 22.15 30.04 28.9C30.04 31.91 26.26 33 23.25 33C17.25 33 16.5 27.75 16.5 27.75" stroke="#001031" stroke-opacity="1.000000" stroke-width="1.800000" stroke-linecap="round"/>
	<path id="Vector 2" d="M24 10.5L24 36" stroke="#001031" stroke-opacity="1.000000" stroke-width="1.800000" stroke-linecap="round"/>
	<path id="Rectangle 11" d="M12.8 0L35.19 0C39.67 0 41.92 0 43.63 0.87C45.13 1.63 46.35 2.86 47.12 4.36C48 6.07 48 8.31 48 12.79L48 32.83C48 37.31 48 39.55 47.12 41.27C46.35 42.77 45.13 44 43.63 44.76C41.92 45.63 39.67 45.63 35.19 45.63L12.8 45.63C8.32 45.63 6.07 45.63 4.36 44.76C2.86 44 1.64 42.77 0.87 41.27C0 39.55 0 37.31 0 32.83L0 12.79C0 8.31 0 6.07 0.87 4.36C1.64 2.86 2.86 1.63 4.36 0.87C6.07 0 8.32 0 12.8 0ZM12.8 1.59L35.19 1.59Q41.53 1.59 42.9 2.29Q43.83 2.76 44.53 3.46Q45.23 4.16 45.7 5.09Q46.39 6.46 46.39 12.79L46.39 32.83Q46.39 39.17 45.7 40.54Q45.23 41.47 44.53 42.17Q43.83 42.87 42.9 43.34Q41.53 44.03 35.19 44.03L12.8 44.03Q6.46 44.03 5.09 43.34Q4.16 42.87 3.46 42.17Q2.76 41.47 2.29 40.54Q1.6 39.17 1.6 32.83L1.6 12.79Q1.6 6.46 2.29 5.09Q2.76 4.16 3.46 3.46Q4.16 2.76 5.09 2.29Q6.46 1.59 12.8 1.59Z" fill="#001031" fill-opacity="1.000000" fill-rule="evenodd"/>
</svg>
