<svg width="28.000000" height="32.000000" viewBox="0 0 28 32" fill="none" xmlns="http://www.w3.org/2000/svg" xmlns:xlink="http://www.w3.org/1999/xlink">
	<desc>
			Created with Pixso.
	</desc>
	<defs/>
	<path id="Subtract" d="M10.2021 21.5312C4.31543 22.1621 0 24.2217 0 26.666C0 29.6113 6.26807 31.999 14 31.999C21.7319 31.999 28 29.6113 28 26.666C28 24.2354 23.7329 22.1846 17.897 21.542L17.6016 23.0928C22.6934 23.5576 26.3999 24.9814 26.3999 26.666C26.3999 28.7275 20.8481 30.3994 14 30.3994C7.15186 30.3994 1.6001 28.7275 1.6001 26.666C1.6001 24.9395 5.49512 23.4863 10.7847 23.0596L10.2021 21.5312Z" clip-rule="evenodd" fill="#FFFFFF" fill-opacity="1.000000" fill-rule="evenodd"/>
	<path id="Ellipse 2" d="M14 28.79C16.15 28.79 23.15 14.9 23.15 9.59C23.15 4.29 19.35 0 14 0C8.64 0 4.3 4.29 4.3 9.59C4.3 14.9 12.38 28.79 14 28.79ZM14.07 26.86C14.34 26.56 14.66 26.15 15.02 25.63C15.47 24.98 15.94 24.21 16.45 23.33C16.95 22.44 17.45 21.49 17.94 20.48C18.44 19.45 18.91 18.42 19.34 17.38C19.79 16.31 20.18 15.29 20.51 14.32C20.84 13.31 21.1 12.41 21.28 11.6C21.46 10.79 21.55 10.12 21.55 9.59C21.55 8.66 21.41 7.77 21.15 6.92C21.1 6.76 21.04 6.59 20.98 6.43C20.7 5.7 20.33 5.04 19.88 4.45C19.73 4.26 19.57 4.08 19.41 3.9C19.02 3.48 18.59 3.12 18.13 2.81C17.78 2.58 17.42 2.38 17.04 2.21C16.87 2.14 16.69 2.07 16.51 2.01C15.72 1.73 14.88 1.59 14 1.59C13.36 1.59 12.74 1.66 12.14 1.8C11.7 1.91 11.27 2.05 10.84 2.23C10.37 2.42 9.92 2.66 9.5 2.94C9.06 3.23 8.65 3.57 8.27 3.94C7.85 4.36 7.48 4.81 7.17 5.3C6.92 5.67 6.71 6.07 6.54 6.49C6.35 6.93 6.2 7.38 6.1 7.84C5.97 8.41 5.9 9 5.9 9.59C5.9 10.1 6 10.75 6.2 11.55C6.41 12.35 6.7 13.25 7.08 14.26C7.45 15.22 7.89 16.24 8.39 17.32C8.87 18.35 9.39 19.38 9.95 20.43C10.49 21.43 11.03 22.38 11.59 23.29C12.12 24.17 12.63 24.95 13.1 25.61C13.47 26.13 13.79 26.54 14.07 26.86Z" fill="#FFFFFF" fill-opacity="1.000000" fill-rule="evenodd"/>
	<ellipse id="Ellipse 3" cx="14.000000" cy="10.132812" rx="4.196154" ry="4.150000" stroke="#FFFFFF" stroke-opacity="1.000000" stroke-width="1.300000"/>
</svg>
