<svg width="32.000000" height="32.000000" viewBox="0 0 32 32" fill="none" xmlns="http://www.w3.org/2000/svg" xmlns:xlink="http://www.w3.org/1999/xlink">
	<desc>
			Created with Pixso.
	</desc>
	<defs>
		<clipPath id="clip11_4327">
			<rect id="phone-call-32" rx="-0.500000" width="31.000000" height="31.000000" transform="translate(0.500000 0.500000)" fill="white" fill-opacity="0"/>
		</clipPath>
	</defs>
	<rect id="phone-call-32" rx="-0.500000" width="31.000000" height="31.000000" transform="translate(0.500000 0.500000)" fill="#FFFFFF" fill-opacity="0"/>
	<g clip-path="url(#clip11_4327)">
		<path id="Icon" d="M8.9 13.41C8.81 13.23 8.77 13.15 8.74 13.03C8.62 12.64 8.7 12.15 8.95 11.81C9.01 11.72 9.1 11.64 9.26 11.47C9.76 10.98 10 10.73 10.17 10.48C10.78 9.54 10.78 8.33 10.17 7.39C10 7.14 9.76 6.9 9.26 6.4L8.98 6.12C8.22 5.37 7.85 4.99 7.44 4.79C6.63 4.38 5.68 4.38 4.87 4.79C4.46 4.99 4.08 5.37 3.33 6.12L3.1 6.35C2.35 7.1 1.97 7.47 1.68 7.98C1.37 8.55 1.14 9.43 1.14 10.08C1.14 10.66 1.25 11.06 1.48 11.86C2.71 16.16 5.02 20.22 8.42 23.6C11.82 26.99 15.89 29.29 20.21 30.51C21.02 30.74 21.42 30.85 22 30.85C22.66 30.85 23.54 30.63 24.11 30.31C24.62 30.02 25 29.65 25.75 28.9L25.98 28.67C26.73 27.92 27.11 27.54 27.32 27.14C27.73 26.33 27.73 25.38 27.32 24.58C27.11 24.17 26.73 23.8 25.98 23.04L25.7 22.77C25.2 22.27 24.95 22.03 24.7 21.86C23.76 21.25 22.54 21.25 21.6 21.86C21.35 22.03 21.1 22.27 20.6 22.77C20.44 22.93 20.36 23.01 20.26 23.08C19.92 23.32 19.44 23.4 19.04 23.29C18.92 23.25 18.83 23.21 18.66 23.13C16.59 22.14 14.66 20.8 12.95 19.09C11.24 17.39 9.89 15.47 8.9 13.41ZM18.39 7.95C19.78 8.22 21.06 8.9 22.06 9.89C23.06 10.89 23.74 12.16 24.01 13.55M18.39 2.28C21.28 2.6 23.97 3.89 26.03 5.93C28.09 7.98 29.38 10.66 29.71 13.53" stroke="#FFFFFF" stroke-opacity="1.000000" stroke-width="1.600000" stroke-linejoin="round"/>
	</g>
</svg>
