<svg width="48.000000" height="48.000000" viewBox="0 0 48 48" fill="none" xmlns="http://www.w3.org/2000/svg" xmlns:xlink="http://www.w3.org/1999/xlink">
	<desc>
			Created with Pixso.
	</desc>
	<defs/>
	<rect id="Rectangle 5" rx="8.000000" width="48.000000" height="48.000000" fill="#FFFFFF" fill-opacity="1.000000"/>
	<path id="Subtract" d="M42.209 15.1201C41.8496 13.2725 40.1416 11.9277 38.1582 11.5078C35.1914 10.9199 29.7002 10.5 23.7588 10.5C17.8203 10.5 12.2412 10.9199 9.27051 11.5078C7.29102 11.9277 5.5791 13.1875 5.2207 15.1201C4.8584 17.2197 4.5 20.1602 4.5 23.9404C4.5 27.7197 4.8584 30.6602 5.30859 32.7598C5.6709 34.6074 7.37891 35.9531 9.3584 36.373C12.5088 36.96 17.9082 37.3799 23.8496 37.3799C29.791 37.3799 35.1914 36.96 38.3418 36.373C40.3203 35.9531 42.0293 34.6924 42.3916 32.7598C42.75 30.6602 43.2002 27.6348 43.291 23.9404C43.1084 20.1602 42.6582 17.2197 42.209 15.1201ZM18.75 18L18.75 30L30 24L27.7793 22.8154L18.9004 18.0596L18.9004 18.0801L18.75 18Z" clip-rule="evenodd" fill="#001031" fill-opacity="1.000000" fill-rule="evenodd"/>
</svg>
