<svg width="29.960938" height="34.700195" viewBox="0 0 29.9609 34.7002" fill="none" xmlns="http://www.w3.org/2000/svg" xmlns:xlink="http://www.w3.org/1999/xlink">
	<desc>
			Created with Pixso.
	</desc>
	<defs/>
	<path id="Subtract" d="M17.1602 0L12.8008 0C8.32031 0 6.08008 0 4.36719 0.87207C2.86328 1.63867 1.63867 2.8623 0.871094 4.36816C0 6.0791 0 8.31934 0 12.7998L0 18.2305C0 22.7109 0 24.9512 0.871094 26.6621C1.63867 28.168 2.86328 29.3916 4.36719 30.1582C5.44531 30.708 6.73438 30.9111 8.6582 30.9863L7.56836 29.3428Q5.72461 29.166 5.04883 28.8223Q4.10742 28.3428 3.39844 27.6328L3.39844 27.6318Q2.6875 26.9219 2.20898 25.9814Q1.5 24.5908 1.5 18.2305L1.5 12.7998Q1.5 6.43945 2.20898 5.04883Q2.6875 4.1084 3.39844 3.39844Q4.10742 2.6875 5.04883 2.20801Q6.43945 1.5 12.8008 1.5L17.1602 1.5Q23.5215 1.5 24.9121 2.20801Q25.8516 2.6875 26.5625 3.39844L26.5625 3.39844Q27.2734 4.1084 27.752 5.04883Q28.4609 6.43945 28.4609 12.7998L28.4609 18.2305Q28.4609 24.5908 27.752 25.9814Q27.2715 26.9219 26.5625 27.6318Q25.8516 28.3428 24.9121 28.8223Q24.3184 29.124 22.8223 29.2969L21.8223 30.9619C23.4648 30.8701 24.6152 30.6562 25.5918 30.1582C27.0977 29.3916 28.3223 28.168 29.0879 26.6621C29.9609 24.9512 29.9609 22.7109 29.9609 18.2305L29.9609 12.7998C29.9609 8.31934 29.9609 6.0791 29.0879 4.36816C28.3223 2.8623 27.0977 1.63867 25.5918 0.87207C23.8809 0 21.6406 0 17.1602 0ZM17.3125 31.0303L16.7129 29.5303L12.8926 29.5303L12.2129 31.0303C12.4043 31.0303 12.5996 31.0303 12.8008 31.0303L17.1602 31.0303L17.3125 31.0303ZM10.1816 6.25781L18.9082 6.25781L18.9082 9.25781L10.1816 9.25781L10.1816 6.25781ZM7.27344 11.1064L21.8184 11.1064L21.8184 14.1064L7.27344 14.1064L7.27344 11.1064Z" clip-rule="evenodd" fill="#001031" fill-opacity="1.000000" fill-rule="evenodd"/>
	<circle id="Ellipse 13" cx="15.031250" cy="23.272461" r="5.118182" stroke="#001031" stroke-opacity="1.000000" stroke-width="1.400000"/>
	<path id="Vector 51" d="M6 28C6 28.48 10.51 34 11 34C11.48 34 14.06 28.12 14.06 28.12C11.98 27.56 11.13 26.81 10.18 24.72C10.18 24.72 6 27.51 6 28ZM19 34C19.48 34 24 28.98 24 28.5C24 28.01 19.87 24.72 19.87 24.72C19 27 17.77 27.97 15.51 28.12C15.51 28.12 18.51 34 19 34Z" stroke="#001031" stroke-opacity="1.000000" stroke-width="1.400000"/>
</svg>
