<svg width="28.000000" height="28.000000" viewBox="0 0 28 28" fill="none" xmlns="http://www.w3.org/2000/svg" xmlns:xlink="http://www.w3.org/1999/xlink">
	<desc>
			Created with Pixso.
	</desc>
	<defs>
		<clipPath id="clip204_2649">
			<rect id="mail-28" rx="-0.500000" width="27.000000" height="27.000000" transform="translate(0.500000 0.500000)" fill="white" fill-opacity="0"/>
		</clipPath>
	</defs>
	<rect id="mail-28" rx="-0.500000" width="27.000000" height="27.000000" transform="translate(0.500000 0.500000)" fill="#FFFFFF" fill-opacity="0"/>
	<g clip-path="url(#clip204_2649)">
		<path id="Icon" d="M20.67 3.5C22.82 3.5 23.9 3.5 24.73 3.92C25.45 4.3 26.04 4.9 26.41 5.65C26.83 6.49 26.83 7.59 26.83 9.79L26.83 18.2C26.83 20.4 26.83 21.5 26.41 22.34C26.04 23.09 25.45 23.69 24.73 24.07C23.9 24.5 22.82 24.5 20.67 24.5L7.32 24.5C5.16 24.5 4.09 24.5 3.26 24.07C2.54 23.69 1.95 23.09 1.58 22.34C1.16 21.5 1.16 20.4 1.16 18.2L1.16 9.79C1.16 7.59 1.16 6.49 1.58 5.65C1.95 4.9 2.54 4.3 3.26 3.92C4.09 3.5 5.16 3.5 7.32 3.5L20.67 3.5ZM1.16 7.43L11.64 14.93C12.49 15.54 12.91 15.85 13.37 15.96C13.78 16.07 14.21 16.07 14.62 15.96C15.08 15.85 15.5 15.54 16.35 14.93L26.83 7.43" stroke="#000000" stroke-opacity="1.000000" stroke-width="1.600000" stroke-linejoin="round" stroke-linecap="round"/>
	</g>
</svg>
