<svg width="24.500000" height="28.000000" viewBox="0 0 24.5 28" fill="none" xmlns="http://www.w3.org/2000/svg" xmlns:xlink="http://www.w3.org/1999/xlink">
	<desc>
			Created with Pixso.
	</desc>
	<defs/>
	<path id="Subtract" d="M8.92773 18.8398C3.77539 19.3916 0 21.1943 0 23.333C0 25.9102 5.48438 27.999 12.25 27.999C19.0156 27.999 24.5 25.9102 24.5 23.333C24.5 21.2061 20.7656 19.4121 15.6602 18.8496L15.3652 20.3994C19.7266 20.7832 22.9004 21.9512 22.9004 23.333C22.9004 25.0264 18.1309 26.3994 12.25 26.3994C6.36914 26.3994 1.59961 25.0264 1.59961 23.333C1.59961 21.9121 4.95508 20.7168 9.50977 20.3682L8.92773 18.8398Z" clip-rule="evenodd" fill="#001031" fill-opacity="1.000000" fill-rule="evenodd"/>
	<path id="Ellipse 2" d="M12.25 25.2C14.13 25.2 20.25 13.03 20.25 8.4C20.25 3.76 16.93 0 12.25 0C7.56 0 3.76 3.76 3.76 8.4C3.76 13.03 10.83 25.2 12.25 25.2ZM12.31 23.2Q12.61 22.84 12.98 22.31Q13.56 21.47 14.22 20.31Q14.87 19.16 15.52 17.83Q16.17 16.49 16.74 15.13Q17.33 13.73 17.75 12.47Q18.19 11.15 18.42 10.1Q18.66 9.06 18.66 8.4Q18.66 7.19 18.31 6.09Q18.24 5.89 18.17 5.7Q17.81 4.76 17.22 4Q17.04 3.77 16.84 3.55Q16.34 3.01 15.75 2.62Q15.31 2.33 14.83 2.12Q14.62 2.03 14.41 1.95Q13.39 1.59 12.25 1.59Q11.43 1.59 10.66 1.77Q10.1 1.91 9.56 2.13Q8.96 2.38 8.42 2.74Q7.86 3.11 7.37 3.59Q6.84 4.12 6.44 4.75Q6.13 5.22 5.9 5.75Q5.66 6.32 5.53 6.9Q5.36 7.63 5.36 8.4Q5.36 9.04 5.62 10.06Q5.88 11.09 6.39 12.41Q7.33 14.89 8.88 17.78Q9.59 19.09 10.31 20.27Q11.01 21.43 11.63 22.3Q12.01 22.83 12.31 23.2Z" fill="#001031" fill-opacity="1.000000" fill-rule="evenodd"/>
	<ellipse id="Ellipse 3" cx="12.250000" cy="8.867188" rx="3.590385" ry="3.550000" stroke="#001031" stroke-opacity="1.000000" stroke-width="1.300000"/>
</svg>
