<svg width="28.000000" height="28.000000" viewBox="0 0 28 28" fill="none" xmlns="http://www.w3.org/2000/svg" xmlns:xlink="http://www.w3.org/1999/xlink">
	<desc>
			Created with Pixso.
	</desc>
	<defs>
		<clipPath id="clip204_2646">
			<rect id="phone-call-28" rx="-0.500000" width="27.000000" height="27.000000" transform="translate(0.500000 0.500000)" fill="white" fill-opacity="0"/>
		</clipPath>
	</defs>
	<rect id="phone-call-28" rx="-0.500000" width="27.000000" height="27.000000" transform="translate(0.500000 0.500000)" fill="#FFFFFF" fill-opacity="0"/>
	<g clip-path="url(#clip204_2646)">
		<path id="Icon" d="M7.78 11.73C7.71 11.58 7.67 11.5 7.64 11.4C7.54 11.06 7.62 10.63 7.83 10.33C7.89 10.25 7.96 10.18 8.1 10.04C8.54 9.61 8.75 9.39 8.9 9.17C9.43 8.35 9.43 7.29 8.9 6.47C8.75 6.25 8.54 6.03 8.1 5.6L7.86 5.36C7.2 4.7 6.86 4.37 6.51 4.19C5.8 3.83 4.97 3.83 4.26 4.19C3.91 4.37 3.57 4.7 2.91 5.36L2.72 5.55C2.06 6.21 1.73 6.54 1.47 6.98C1.19 7.48 0.99 8.25 1 8.82C1 9.33 1.1 9.68 1.3 10.38C2.37 14.14 4.39 17.69 7.37 20.65C10.34 23.61 13.91 25.63 17.68 26.7C18.39 26.89 18.74 26.99 19.25 27C19.83 27 20.6 26.8 21.09 26.52C21.54 26.27 21.87 25.94 22.53 25.28L22.73 25.09C23.39 24.43 23.72 24.1 23.9 23.74C24.26 23.04 24.26 22.21 23.9 21.51C23.72 21.15 23.39 20.82 22.73 20.16L22.49 19.92C22.05 19.49 21.83 19.27 21.61 19.13C20.79 18.59 19.73 18.59 18.9 19.13C18.68 19.27 18.46 19.49 18.03 19.92C17.88 20.06 17.81 20.13 17.73 20.19C17.43 20.4 17 20.48 16.66 20.38C16.56 20.35 16.48 20.31 16.33 20.24C14.52 19.37 12.83 18.2 11.33 16.71C9.83 15.22 8.65 13.53 7.78 11.73ZM16.09 6.95C17.31 7.19 18.43 7.78 19.3 8.66C20.18 9.53 20.77 10.64 21.01 11.85M16.09 2C18.62 2.27 20.98 3.4 22.78 5.19C24.58 6.98 25.71 9.33 26 11.84" stroke="#000000" stroke-opacity="1.000000" stroke-width="1.600000" stroke-linejoin="round"/>
	</g>
</svg>
